<svg xmlns="http://www.w3.org/2000/svg" viewBox="0 0 50 50">
  <path style="
    fill: brown;"
    d="M 16 3 A 1.0001 1.0001 0 0 0 15 4 L 15 10 L 6 10 L 6 10.009766 C 5.9433194 10.008314 5.8917214 10 5.8339844 10 C 3.6224719 10 2.2318421 11.266774 1.6230469 12.451172 C 1.0142516 13.635569 1 14.794922 1 14.794922 A 1.0001 1.0001 0 0 0 1 14.818359 L 1 39.390625 A 1.0001 1.0001 0 0 0 1.0117188 39.541016 C 1.0604119 43.541755 2.9476682 45.841212 4.8398438 46.919922 C 6.7567937 48.012756 8.671875 48 8.671875 48 A 1.0001 1.0001 0 0 0 8.7207031 47.998047 C 8.7207031 47.998047 8.9540856 47.960471 9 47.957031 L 9 48 L 11.583984 48 L 40.322266 48 C 40.322266 48 40.454298 48.003214 40.6875 47.990234 C 41.387107 47.951296 42.989721 47.772662 44.609375 46.972656 C 46.768914 45.905986 49 43.542945 49 39.335938 L 49 4 A 1.0001 1.0001 0 0 0 48 3 L 16 3 z M 17 5 L 47 5 L 47 39.335938 C 47 42.88393 45.39807 44.353108 43.724609 45.179688 C 42.051149 46.006267 40.345703 46 40.345703 46 A 1.0001 1.0001 0 0 0 40.333984 46 L 13.824219 46 C 15.513071 44.666249 17 42.462714 17 39 L 17 5 z M 21 8 C 20.448 8 20 8.448 20 9 C 20 9.552 20.448 10 21 10 L 43 10 C 43.552 10 44 9.552 44 9 C 44 8.448 43.552 8 43 8 L 21 8 z M 5.8339844 12 C 7.41503 12 8.0746226 12.600746 8.5019531 13.208984 C 8.8326554 13.680112 9 14.292925 9 14.941406 L 9 38.015625 A 1.0001 1.0001 0 1 0 11 38.015625 L 11 14.941406 C 11 13.953887 10.74997 12.929466 10.138672 12.058594 C 10.124822 12.038881 10.106164 12.019711 10.091797 12 L 15 12 L 15 39 C 15 42.49861 13.44449 44.080576 11.839844 44.996094 C 10.256911 45.899223 8.6912286 45.9955 8.6484375 45.998047 C 8.6147386 45.997696 7.2329587 45.980295 5.8320312 45.181641 C 4.4139813 44.373225 3.0019531 42.905081 3.0019531 39.390625 L 3 39.390625 L 3 14.841797 C 3 14.841797 3.029889 14.089837 3.4023438 13.365234 C 3.7747985 12.640632 4.3024968 12 5.8339844 12 z M 20 13 L 20 24 L 44 24 L 44 13 L 20 13 z M 22 27 A 1.0001 1.0001 0 1 0 22 29 L 29 29 A 1.0001 1.0001 0 1 0 29 27 L 22 27 z M 35 27 A 1.0001 1.0001 0 1 0 35 29 L 42 29 A 1.0001 1.0001 0 1 0 42 27 L 35 27 z M 22 31 A 1.0001 1.0001 0 1 0 22 33 L 29 33 A 1.0001 1.0001 0 1 0 29 31 L 22 31 z M 35 31 A 1.0001 1.0001 0 1 0 35 33 L 42 33 A 1.0001 1.0001 0 1 0 42 31 L 35 31 z M 22 35 A 1.0001 1.0001 0 1 0 22 37 L 29 37 A 1.0001 1.0001 0 1 0 29 35 L 22 35 z M 35 35 A 1.0001 1.0001 0 1 0 35 37 L 42 37 A 1.0001 1.0001 0 1 0 42 35 L 35 35 z M 22 39 A 1.0001 1.0001 0 1 0 22 41 L 29 41 A 1.0001 1.0001 0 1 0 29 39 L 22 39 z M 35 39 A 1.0001 1.0001 0 1 0 35 41 L 42 41 A 1.0001 1.0001 0 1 0 42 39 L 35 39 z">
  </path>
</svg>